# Blender 4.2.0
# www.blender.org
mtllib IAICabinet1W60.mtl
o convex_1
v -0.436484 0.276198 -0.460255
v 0.098678 0.308829 1.067205
v -0.462586 0.308829 1.067205
v 0.098678 0.276198 1.067205
v 0.098678 0.308829 -0.460255
v -0.462586 0.308829 -0.460255
v -0.449563 0.276198 1.067205
v 0.098678 0.276198 -0.283975
v 0.098678 0.282726 -0.460255
v -0.462586 0.282726 -0.460255
v -0.462586 0.282726 1.067205
v -0.449563 0.276198 -0.460255
v -0.430006 0.282709 -0.460315
v -0.449584 -0.246014 -1.067323
v -0.462638 0.282709 -1.067323
v -0.430006 0.308832 -1.067323
v -0.462638 0.308832 -0.460315
v -0.436533 -0.246014 -0.460315
v -0.430006 -0.246014 -1.067323
v -0.449584 -0.246014 -0.460315
v -0.462638 0.308832 -1.067323
v -0.430006 0.308832 -0.460315
v -0.462638 0.282709 -0.460315
v 0.098682 -0.246014 0.675534
v -0.429951 -0.298230 0.486248
v -0.429951 -0.278644 0.486248
v -0.429951 -0.298230 0.701659
v 0.098682 -0.298230 0.486248
v 0.098682 -0.298230 0.701659
v -0.429951 -0.246014 0.675534
v 0.098682 -0.278644 0.486248
v -0.429951 -0.246014 0.655924
v -0.429951 -0.278644 0.701659
v 0.098682 -0.246014 0.655924
v 0.098682 -0.278644 0.701659
v -0.429951 -0.298230 1.041094
v 0.098682 -0.246014 1.067205
v 0.098682 -0.246014 1.047627
v 0.098682 -0.298230 1.041094
v 0.098682 -0.298230 1.067205
v -0.429951 -0.246014 1.067205
v -0.429951 -0.298230 1.067205
v -0.429951 -0.246014 1.047627
v -0.429951 -0.278644 1.041094
v 0.098682 0.308832 -0.962902
v -0.429951 0.250084 -1.067323
v -0.429951 0.250084 -1.047727
v -0.429951 0.308832 -1.067323
v 0.098682 0.250084 -1.067323
v -0.429951 0.282719 -0.962902
v 0.098682 0.308832 -1.067323
v 0.066030 0.250084 -1.021619
v -0.429951 0.308832 -0.962902
v 0.098682 0.282719 -0.962902
v -0.397300 0.250084 -1.021619
v 0.092160 0.256617 -0.512555
v -0.429951 0.282719 -0.962881
v -0.397345 0.250084 -0.525593
v -0.429951 0.308832 -0.460255
v 0.098682 0.308832 -0.962881
v 0.098682 0.308832 -0.460255
v 0.098682 0.282719 -0.962881
v -0.429951 0.308832 -0.962881
v 0.066076 0.250084 -0.505962
v -0.429951 0.282719 -0.460255
v 0.098682 0.282719 -0.460255
v 0.066076 0.250084 -0.525593
v -0.397345 0.250084 -0.505962
v -0.410387 0.256617 -0.505962
v -0.436534 -0.246014 -0.460255
v -0.436534 0.276194 -0.179568
v -0.449586 0.276194 -0.179568
v -0.436534 -0.246014 -0.179568
v -0.449586 0.276194 -0.460255
v -0.449586 -0.246014 -0.179568
v -0.430003 0.276194 -0.284029
v -0.449586 -0.246014 -0.460255
v -0.436534 0.276194 -0.460255
v -0.430003 -0.246014 -0.264439
v 0.098682 0.276194 -0.264427
v -0.429951 -0.272122 -0.284010
v 0.098682 -0.272122 -0.284010
v -0.429951 -0.272122 -0.264427
v -0.429951 0.276194 -0.284010
v 0.098682 -0.272122 -0.264427
v 0.098682 0.276194 -0.284010
v -0.429951 0.276194 -0.264427
v -0.430003 0.276194 1.067083
v -0.443057 -0.246014 -0.179446
v -0.449586 -0.245963 -0.179446
v -0.443057 -0.246014 1.067083
v -0.449586 0.276194 1.067083
v -0.436532 0.276194 -0.179446
v -0.430003 -0.246014 0.264453
v -0.449586 0.276194 -0.179446
v -0.430003 -0.246014 1.067083
v -0.449586 -0.245963 1.067083
v -0.430003 0.276194 0.264453
v -0.436532 -0.246014 -0.179446
v 0.052993 -0.252544 -0.492900
v -0.410420 -0.272122 -0.532059
v -0.410420 -0.272122 -0.525525
v -0.410420 -0.246017 -0.532059
v 0.092206 -0.272122 -0.532059
v -0.377702 -0.265593 -0.486375
v 0.092206 -0.246017 -0.532059
v -0.410420 -0.246017 -0.505954
v -0.227593 -0.272122 -0.499425
v 0.066081 -0.265593 -0.499425
v -0.377702 -0.252544 -0.486375
v 0.066081 -0.246017 -0.499425
v -0.429951 -0.246014 0.655966
v 0.098682 0.276194 0.675548
v 0.098682 -0.246014 0.675548
v 0.098682 0.276194 0.655966
v -0.429951 0.276194 0.675548
v -0.429951 0.276194 0.655966
v -0.429951 -0.246014 0.675548
v 0.098682 -0.246014 0.655966
v -0.429951 -0.298230 0.257781
v 0.098682 -0.246014 0.283889
v 0.098682 -0.246014 0.264310
v -0.429951 -0.246014 0.283889
v 0.098682 -0.298230 0.296947
v 0.098682 -0.298230 0.257781
v -0.429951 -0.298230 0.296947
v -0.429951 -0.246014 0.264310
v -0.429951 -0.278644 0.296947
v 0.098682 -0.278644 0.257781
v 0.098682 -0.278644 0.296947
v -0.430006 -0.246014 1.067205
v -0.462638 -0.298230 -1.067323
v -0.462638 -0.278644 -1.067323
v -0.430006 -0.298230 -1.067323
v -0.462638 -0.298230 1.067205
v -0.430006 -0.246014 -1.067323
v -0.430006 -0.298230 1.067205
v -0.449583 -0.246014 1.067205
v -0.449583 -0.246014 -1.067323
v -0.462638 -0.278644 1.067205
v 0.111789 -0.252546 0.329615
v -0.430003 -0.298230 0.296947
v -0.430003 -0.298230 0.486248
v 0.098689 -0.298230 0.296947
v 0.098689 -0.298230 0.486248
v -0.430003 -0.278644 0.486248
v -0.430003 -0.278644 0.296947
v 0.085643 -0.246014 0.375310
v 0.098689 -0.278644 0.486248
v 0.085643 -0.246014 0.316552
v 0.098689 -0.278644 0.296947
v 0.111789 -0.291698 0.362246
v 0.098682 -0.278652 0.943133
v -0.429951 -0.298235 0.701706
v -0.429951 -0.278652 0.701706
v 0.098682 -0.298235 0.701706
v -0.429951 -0.298235 0.943133
v -0.429951 -0.278652 0.943133
v 0.098682 -0.278652 0.701706
v 0.098682 -0.298235 0.943133
v 0.066076 -0.246014 -1.015093
v -0.429951 -0.298230 -1.067323
v -0.429951 -0.298230 -0.767053
v 0.098682 -0.298230 -1.067323
v -0.429951 -0.246014 -1.067323
v 0.098682 -0.278644 -0.767053
v -0.429951 -0.278644 -0.767053
v 0.098682 -0.298230 -0.767053
v 0.098682 -0.246014 -1.067323
v -0.410387 -0.246014 -1.021618
v -0.429951 -0.246014 1.047622
v 0.098682 0.276194 1.067205
v 0.098682 -0.246014 1.067205
v 0.098682 0.276194 1.047622
v -0.429951 0.276194 1.067205
v -0.429951 0.276194 1.047622
v -0.429951 -0.246014 1.067205
v 0.098682 -0.246014 1.047622
v 0.111789 -0.252546 0.995396
v -0.430003 -0.298230 0.943180
v -0.430003 -0.298230 1.041094
v 0.098689 -0.298230 0.943180
v 0.098689 -0.298230 1.041094
v 0.085643 -0.246014 0.949726
v -0.430003 -0.278644 1.041094
v -0.430003 -0.278644 0.943180
v 0.098689 -0.246014 1.014967
v 0.098689 -0.278644 1.041094
v 0.098689 -0.278644 0.943180
v -0.429951 -0.246014 -1.067323
v 0.098682 0.250084 -1.047740
v 0.098682 -0.246014 -1.047740
v 0.098682 0.250084 -1.067323
v -0.429951 0.250084 -1.047740
v 0.098682 -0.246014 -1.067323
v -0.429951 -0.246014 -1.047740
v -0.429951 0.250084 -1.067323
v -0.410367 -0.272125 -0.532044
v 0.098733 -0.278652 0.016260
v 0.098733 -0.298235 0.016260
v 0.098733 -0.298235 -0.767053
v -0.429982 -0.298235 0.016260
v -0.429982 -0.298235 -0.767053
v 0.098733 -0.278652 -0.767053
v -0.429982 -0.278652 0.016260
v 0.098733 -0.272125 -0.264448
v -0.429982 -0.278652 -0.767053
v -0.429982 -0.272125 -0.264448
v 0.092161 -0.272125 -0.532044
v 0.098682 -0.278652 0.257758
v -0.429951 -0.298235 0.016284
v -0.429951 -0.278652 0.016284
v -0.429951 -0.298235 0.257758
v 0.098682 -0.298235 0.016284
v 0.098682 -0.298235 0.257758
v 0.098682 -0.278652 0.016284
v -0.429951 -0.278652 0.257758
v -0.429951 -0.246014 0.264309
v 0.098682 0.276194 0.283892
v 0.098682 -0.246014 0.283892
v 0.098682 0.276194 0.264309
v -0.429951 0.276194 0.283892
v -0.429951 0.276194 0.264309
v -0.429951 -0.246014 0.283892
v 0.098682 -0.246014 0.264309
vn -0.4481 -0.8940 -0.0000
vn -0.0000 -0.0000 1.0000
vn -0.0000 1.0000 -0.0000
vn 1.0000 -0.0000 -0.0000
vn -0.0000 -0.0000 -1.0000
vn -0.0000 -1.0000 -0.0000
vn 0.0122 -0.9992 -0.0370
vn -1.0000 -0.0000 -0.0000
vn 0.0001 -0.0000 1.0000
vn 0.9999 -0.0123 0.0108
vn -0.9997 -0.0247 -0.0000
vn -0.0000 0.9820 -0.1888
vn -0.0000 0.6250 0.7806
vn -0.0000 0.1963 -0.9805
vn 0.0046 0.1241 -0.9923
vn -0.0000 -0.8741 0.4858
vn 0.3853 -0.8808 0.2753
vn -0.2760 -0.8971 0.3451
vn -0.4479 -0.8941 -0.0000
vn -0.0000 -0.9972 -0.0744
vn -0.0000 -0.8138 0.5811
vn 0.9702 -0.2424 -0.0000
vn 0.3155 -0.8642 0.3920
vn 0.2670 -0.9623 -0.0519
vn 0.2430 -0.9700 -0.0000
vn -0.4267 -0.8518 0.3038
vn -0.4826 -0.8753 -0.0293
vn -0.8002 -0.5998 -0.0000
vn 0.9994 -0.0013 -0.0333
vn 0.9993 -0.0000 -0.0370
vn 0.9971 -0.0000 0.0767
vn 0.9980 0.0023 0.0624
vn -0.0078 -1.0000 -0.0000
vn 0.9999 -0.0000 -0.0147
vn 0.0109 0.6960 0.7180
vn -0.6422 -0.4598 0.6133
vn -0.0266 -0.9822 0.1860
vn 0.0177 -0.7976 0.6030
vn 0.0266 -0.4256 0.9045
vn 0.7807 -0.0000 0.6250
vn 0.0217 -0.9768 0.2128
vn 0.0151 -0.0000 0.9999
vn -0.5135 -0.0000 0.8581
vn -0.0044 0.9464 0.3229
vn 0.4462 -0.0000 0.8949
vn -0.0000 0.3715 0.9284
vn -0.0046 0.1241 -0.9923
vn -0.0000 0.1962 -0.9806
vn -0.9284 0.3715 -0.0000
vn 0.9945 -0.0000 0.1051
vn -0.0632 0.9980 -0.0000
vn 0.5263 0.8305 0.1824
vn -0.0000 0.9594 0.2822
vn 0.2424 0.9702 -0.0000
vn 0.9282 -0.0000 -0.3722
vn 0.4747 0.5849 -0.6577
vn -0.0000 0.5150 -0.8572
vn 0.9722 -0.1500 -0.1800
vn 0.4462 -0.8949 -0.0000
vn 0.9921 0.0803 0.0964
vn -0.2447 0.9639 0.1047
vn -0.0000 0.9915 0.1304
vn 0.1705 0.9796 0.1065
vn -0.0017 0.9919 0.1270
vn 0.9613 -0.2756 -0.0000
vn 0.3575 0.9312 -0.0715
vn -0.0610 0.9981 0.0122
vn 0.9613 -0.0000 0.2756
vn 0.8282 0.3503 0.4375
vn 0.9699 -0.0000 -0.2433
vn 0.8162 0.4083 -0.4088
vn -0.0000 0.1967 -0.9805
vn -0.0000 0.9997 0.0232
vn -0.0000 0.9996 -0.0278
vn -0.1744 0.9846 -0.0128
vn 0.4674 0.8840 -0.0115
s 0
f 7//1 10//1 12//1
f 2//2 3//2 4//2
f 3//3 2//3 5//3
f 2//4 4//4 5//4
f 5//5 1//5 6//5
f 3//3 5//3 6//3
f 4//2 3//2 7//2
f 1//6 4//6 7//6
f 4//6 1//6 8//6
f 5//4 4//4 8//4
f 5//4 8//4 9//4
f 1//5 5//5 9//5
f 8//7 1//7 9//7
f 6//5 1//5 10//5
f 3//8 6//8 10//8
f 10//1 7//1 11//1
f 7//2 3//2 11//2
f 3//8 10//8 11//8
f 1//6 7//6 12//6
f 10//5 1//5 12//5
f 20//9 17//9 23//9
f 14//5 15//5 16//5
f 13//2 17//2 18//2
f 14//5 16//5 19//5
f 16//4 13//4 19//4
f 18//6 14//6 19//6
f 13//10 18//10 19//10
f 15//11 14//11 20//11
f 14//6 18//6 20//6
f 18//2 17//2 20//2
f 16//5 15//5 21//5
f 17//3 16//3 21//3
f 15//8 17//8 21//8
f 13//4 16//4 22//4
f 17//2 13//2 22//2
f 16//3 17//3 22//3
f 17//8 15//8 23//8
f 15//11 20//11 23//11
f 33//2 29//2 35//2
f 26//8 25//8 27//8
f 25//5 26//5 28//5
f 27//6 25//6 28//6
f 28//4 24//4 29//4
f 27//6 28//6 29//6
f 26//8 27//8 30//8
f 24//4 28//4 31//4
f 28//5 26//5 31//5
f 30//3 24//3 32//3
f 26//8 30//8 32//8
f 31//12 26//12 32//12
f 27//2 29//2 33//2
f 24//13 30//13 33//13
f 30//8 27//8 33//8
f 24//4 31//4 34//4
f 32//3 24//3 34//3
f 31//12 32//12 34//12
f 29//4 24//4 35//4
f 24//13 33//13 35//13
f 43//14 38//14 44//14
f 38//4 37//4 39//4
f 36//6 39//6 40//6
f 39//4 37//4 40//4
f 40//2 37//2 41//2
f 37//3 38//3 41//3
f 36//6 40//6 42//6
f 40//2 41//2 42//2
f 41//8 36//8 42//8
f 36//8 41//8 43//8
f 41//3 38//3 43//3
f 38//15 39//15 44//15
f 39//5 36//5 44//5
f 36//8 43//8 44//8
f 52//16 50//16 55//16
f 46//8 47//8 48//8
f 47//6 46//6 49//6
f 46//5 48//5 49//5
f 48//8 47//8 50//8
f 48//3 45//3 51//3
f 45//4 49//4 51//4
f 49//5 48//5 51//5
f 47//6 49//6 52//6
f 45//3 48//3 53//3
f 48//8 50//8 53//8
f 50//2 45//2 53//2
f 49//4 45//4 54//4
f 45//2 50//2 54//2
f 52//17 49//17 54//17
f 50//16 52//16 54//16
f 50//18 47//18 55//18
f 47//6 52//6 55//6
f 58//19 68//19 69//19
f 60//3 59//3 61//3
f 60//4 61//4 62//4
f 58//20 57//20 62//20
f 57//5 60//5 62//5
f 57//8 59//8 63//8
f 59//3 60//3 63//3
f 60//5 57//5 63//5
f 59//8 57//8 65//8
f 61//2 59//2 65//2
f 65//21 64//21 66//21
f 62//4 61//4 66//4
f 56//22 62//22 66//22
f 64//23 56//23 66//23
f 61//2 65//2 66//2
f 62//24 56//24 67//24
f 58//20 62//20 67//20
f 64//6 58//6 67//6
f 56//25 64//25 67//25
f 58//6 64//6 68//6
f 64//21 65//21 68//21
f 68//26 65//26 69//26
f 57//27 58//27 69//27
f 65//28 57//28 69//28
f 70//29 76//29 79//29
f 71//2 72//2 73//2
f 72//3 71//3 74//3
f 73//2 72//2 75//2
f 70//6 73//6 75//6
f 72//8 74//8 75//8
f 74//3 71//3 76//3
f 74//5 70//5 77//5
f 70//6 75//6 77//6
f 75//8 74//8 77//8
f 70//5 74//5 78//5
f 76//30 70//30 78//30
f 74//3 76//3 78//3
f 71//31 73//31 79//31
f 73//6 70//6 79//6
f 76//32 71//32 79//32
f 84//8 83//8 87//8
f 81//6 82//6 83//6
f 82//5 81//5 84//5
f 81//8 83//8 84//8
f 82//4 80//4 85//4
f 83//6 82//6 85//6
f 80//2 83//2 85//2
f 80//4 82//4 86//4
f 84//3 80//3 86//3
f 82//5 84//5 86//5
f 83//2 80//2 87//2
f 80//3 84//3 87//3
f 94//6 89//6 99//6
f 90//33 89//33 91//33
f 91//2 88//2 92//2
f 89//5 90//5 93//5
f 92//3 88//3 93//3
f 91//6 89//6 94//6
f 90//8 92//8 95//8
f 93//5 90//5 95//5
f 92//3 93//3 95//3
f 88//2 91//2 96//2
f 94//4 88//4 96//4
f 91//6 94//6 96//6
f 90//33 91//33 97//33
f 91//2 92//2 97//2
f 92//8 90//8 97//8
f 93//3 88//3 98//3
f 88//4 94//4 98//4
f 94//34 93//34 98//34
f 89//5 93//5 99//5
f 93//34 94//34 99//34
f 110//35 100//35 111//35
f 101//8 102//8 103//8
f 102//6 101//6 104//6
f 101//5 103//5 104//5
f 104//5 103//5 106//5
f 103//8 102//8 107//8
f 102//36 105//36 107//36
f 106//3 103//3 107//3
f 102//6 104//6 108//6
f 105//37 102//37 108//37
f 105//38 108//38 109//38
f 100//39 105//39 109//39
f 104//40 106//40 109//40
f 108//41 104//41 109//41
f 105//42 100//42 110//42
f 107//43 105//43 110//43
f 107//44 110//44 111//44
f 106//3 107//3 111//3
f 100//45 109//45 111//45
f 109//40 106//40 111//40
f 112//5 115//5 119//5
f 113//4 114//4 115//4
f 114//2 113//2 116//2
f 113//3 115//3 116//3
f 115//5 112//5 117//5
f 112//8 116//8 117//8
f 116//3 115//3 117//3
f 112//6 114//6 118//6
f 116//8 112//8 118//8
f 114//2 116//2 118//2
f 114//6 112//6 119//6
f 115//4 114//4 119//4
f 128//2 124//2 130//2
f 121//3 122//3 123//3
f 122//4 121//4 124//4
f 124//6 120//6 125//6
f 122//4 124//4 125//4
f 123//8 120//8 126//8
f 120//6 124//6 126//6
f 123//3 122//3 127//3
f 120//8 123//8 127//8
f 121//46 123//46 128//46
f 123//8 126//8 128//8
f 126//2 124//2 128//2
f 125//5 120//5 129//5
f 122//4 125//4 129//4
f 120//47 127//47 129//47
f 127//48 122//48 129//48
f 124//4 121//4 130//4
f 121//46 128//46 130//46
f 138//49 133//49 140//49
f 132//5 133//5 134//5
f 133//8 132//8 135//8
f 132//6 134//6 135//6
f 134//5 133//5 136//5
f 131//4 134//4 136//4
f 134//4 131//4 137//4
f 131//2 135//2 137//2
f 135//6 134//6 137//6
f 135//2 131//2 138//2
f 131//3 136//3 138//3
f 138//3 136//3 139//3
f 136//5 133//5 139//5
f 133//49 138//49 139//49
f 133//8 135//8 140//8
f 135//2 138//2 140//2
f 149//50 145//50 152//50
f 143//6 142//6 144//6
f 143//6 144//6 145//6
f 143//2 145//2 146//2
f 142//8 143//8 146//8
f 144//5 142//5 147//5
f 142//8 146//8 147//8
f 147//51 146//51 148//51
f 146//2 145//2 149//2
f 141//52 148//52 149//52
f 148//53 146//53 149//53
f 148//54 141//54 150//54
f 147//51 148//51 150//51
f 141//55 144//55 151//55
f 144//5 147//5 151//5
f 150//56 141//56 151//56
f 147//57 150//57 151//57
f 144//58 141//58 152//58
f 145//59 144//59 152//59
f 141//60 149//60 152//60
f 157//6 156//6 160//6
f 154//5 155//5 156//5
f 155//8 154//8 157//8
f 154//6 156//6 157//6
f 153//3 155//3 158//3
f 157//2 153//2 158//2
f 155//8 157//8 158//8
f 155//3 153//3 159//3
f 156//5 155//5 159//5
f 153//4 156//4 159//4
f 156//4 153//4 160//4
f 153//2 157//2 160//2
f 165//61 167//61 170//61
f 163//6 162//6 164//6
f 162//8 163//8 165//8
f 164//5 162//5 165//5
f 165//8 163//8 167//8
f 163//2 166//2 167//2
f 166//62 161//62 167//62
f 163//6 164//6 168//6
f 166//2 163//2 168//2
f 164//4 166//4 168//4
f 165//3 161//3 169//3
f 164//5 165//5 169//5
f 166//4 164//4 169//4
f 161//63 166//63 169//63
f 161//3 165//3 170//3
f 167//64 161//64 170//64
f 171//5 174//5 178//5
f 172//4 173//4 174//4
f 173//2 172//2 175//2
f 172//3 174//3 175//3
f 174//5 171//5 176//5
f 171//8 175//8 176//8
f 175//3 174//3 176//3
f 171//6 173//6 177//6
f 175//8 171//8 177//8
f 173//2 175//2 177//2
f 173//6 171//6 178//6
f 174//4 173//4 178//4
f 182//5 186//5 189//5
f 181//6 180//6 182//6
f 182//65 179//65 183//65
f 181//6 182//6 183//6
f 180//8 181//8 185//8
f 181//2 183//2 185//2
f 185//51 184//51 186//51
f 182//5 180//5 186//5
f 180//8 185//8 186//8
f 179//66 184//66 187//66
f 184//67 185//67 187//67
f 187//13 185//13 188//13
f 183//68 179//68 188//68
f 185//2 183//2 188//2
f 179//69 187//69 188//69
f 179//70 182//70 189//70
f 184//71 179//71 189//71
f 186//72 184//72 189//72
f 194//3 193//3 197//3
f 191//4 192//4 193//4
f 192//2 191//2 194//2
f 191//3 193//3 194//3
f 192//6 190//6 195//6
f 193//4 192//4 195//4
f 190//5 193//5 195//5
f 190//6 192//6 196//6
f 194//8 190//8 196//8
f 192//2 194//2 196//2
f 193//5 190//5 197//5
f 190//8 194//8 197//8
f 198//3 206//3 209//3
f 199//4 200//4 201//4
f 200//2 199//2 202//2
f 201//6 200//6 202//6
f 201//6 202//6 203//6
f 199//4 201//4 204//4
f 201//5 203//5 204//5
f 202//2 199//2 205//2
f 203//8 202//8 205//8
f 199//4 204//4 206//4
f 205//73 199//73 206//73
f 198//74 204//74 207//74
f 204//5 203//5 207//5
f 203//8 205//8 207//8
f 207//8 205//8 208//8
f 206//3 198//3 208//3
f 205//73 206//73 208//73
f 198//75 207//75 208//75
f 204//74 198//74 209//74
f 206//76 204//76 209//76
f 213//2 210//2 217//2
f 212//8 211//8 213//8
f 211//5 212//5 214//5
f 213//6 211//6 214//6
f 210//2 213//2 215//2
f 214//4 210//4 215//4
f 213//6 214//6 215//6
f 212//3 210//3 216//3
f 210//4 214//4 216//4
f 214//5 212//5 216//5
f 210//3 212//3 217//3
f 212//8 213//8 217//8
f 218//5 221//5 225//5
f 219//4 220//4 221//4
f 220//2 219//2 222//2
f 219//3 221//3 222//3
f 221//5 218//5 223//5
f 218//8 222//8 223//8
f 222//3 221//3 223//3
f 218//6 220//6 224//6
f 222//8 218//8 224//8
f 220//2 222//2 224//2
f 220//6 218//6 225//6
f 221//4 220//4 225//4
